<svg width="474" height="223" viewBox="0 0 474 223" fill="none" xmlns="http://www.w3.org/2000/svg">
<g clip-path="url(#clip0_1_51)">
<path d="M63.8761 77.6408V5.71896H82.4199V77.6408H63.8761Z" fill="white"/>
<path d="M98.5799 79.1431C102.571 83.4521 108.392 85.1783 114.424 85.1783C119.916 85.1783 127.673 82.9118 127.673 73.2133V69.2205C123.366 74.2938 118.191 76.7711 112.264 76.7711C99.5413 76.7711 89.308 68.0346 89.308 50.456C89.308 33.3123 99.2252 24.2595 112.264 24.2595C118.085 24.2595 123.472 26.526 127.673 31.7047V25.564H144.162V73.0024C144.162 94.2443 127.344 98.7773 114.424 98.7773C105.481 98.7773 98.0399 96.5108 91.3626 91.0158L98.5799 79.1562V79.1431ZM127.673 43.5643C125.632 40.7575 121.207 38.9258 117.756 38.9258C111.184 38.9258 106.337 42.9186 106.337 50.4692C106.337 58.0198 111.184 62.118 117.756 62.118C121.207 62.118 125.619 60.2863 127.673 57.4795V43.5643Z" fill="white"/>
<path d="M189.416 77.6409V47.557C189.416 41.1923 186.07 38.9258 180.908 38.9258C175.745 38.9258 172.716 41.6272 170.78 43.9991V77.6409H154.185V25.5509H170.78V31.9155C173.901 28.2522 180.052 24.2595 188.783 24.2595C200.637 24.2595 206.023 31.1644 206.023 40.7575V77.6409H189.429H189.416Z" fill="white"/>
<path d="M214.742 9.48768C214.742 4.20357 218.943 0 224.225 0C229.506 0 233.707 4.20357 233.707 9.48768C233.707 14.7718 229.506 18.9754 224.225 18.9754C218.943 18.9754 214.742 14.7718 214.742 9.48768ZM215.927 77.6408V25.5508H232.522V77.6277H215.927V77.6408Z" fill="white"/>
<path d="M245.877 63.6202V40.0064H237.25V25.5509H245.877V11.3193H262.366V25.5509H272.929V40.0064H262.366V58.9817C262.366 61.9994 264.091 64.2659 267.002 64.2659C268.833 64.2659 270.663 63.6202 271.203 62.9745L274.443 75.4798C272.402 77.4168 268.306 78.9322 262.155 78.9322C251.593 78.9322 245.877 73.6481 245.877 63.6202Z" fill="white"/>
<path d="M303.326 24.2595C318.735 24.2595 329.943 35.5788 329.943 53.2628V56.8207H292.869C293.843 61.6699 298.361 66.0975 306.131 66.0975C310.767 66.0975 315.943 64.2659 318.854 61.6831L325.86 72.0405C320.684 76.6789 312.071 78.9454 304.09 78.9454C288.035 78.9454 275.642 68.4826 275.642 51.5629C275.642 36.4617 287.06 24.2858 303.339 24.2858L303.326 24.2595ZM292.645 46.0416H314.086C313.651 42.3783 310.965 37.0942 303.313 37.0942C296.095 37.0942 293.29 42.2729 292.645 46.0416Z" fill="white"/>
<path d="M20.1506 170.053V114.3H0V98.1184H58.7397V114.3H38.6944V170.053H20.1638H20.1506Z" fill="white"/>
<path d="M100.332 170.053V139.759C100.332 133.394 96.9863 131.352 91.705 131.352C86.8583 131.352 83.6184 134.053 81.6824 136.425V170.067H65.0877V98.1448H81.6824V124.341C84.8037 120.678 90.9543 116.685 99.6862 116.685C111.539 116.685 116.926 123.366 116.926 132.972V170.067H100.332V170.053Z" fill="white"/>
<path d="M151.09 116.685C166.499 116.685 177.707 128.005 177.707 145.689V149.246H140.633C141.607 154.096 146.125 158.523 153.882 158.523C158.518 158.523 163.694 156.692 166.605 154.109L173.611 164.466C168.435 169.105 159.822 171.371 151.841 171.371C135.786 171.371 123.393 160.908 123.393 143.989C123.393 128.888 134.811 116.712 151.09 116.712V116.685ZM140.409 138.467H161.85C161.416 134.804 158.729 129.52 151.077 129.52C143.859 129.52 141.054 134.699 140.409 138.467Z" fill="white"/>
<path d="M229.216 170.053V141.05L201.954 98.1316H222.868L238.501 124.658L253.911 98.1316H274.931L247.773 141.05V170.053H229.23H229.216Z" fill="white"/>
<path d="M288.694 116.685C304.103 116.685 315.311 128.005 315.311 145.689V149.246H278.236C279.211 154.096 283.728 158.523 291.486 158.523C296.122 158.523 301.298 156.692 304.208 154.109L311.215 164.466C306.039 169.105 297.425 171.371 289.444 171.371C273.39 171.371 260.996 160.908 260.996 143.989C260.996 128.888 272.415 116.712 288.694 116.712V116.685ZM278.026 138.467H299.467C299.032 134.804 296.345 129.52 288.694 129.52C281.476 129.52 278.671 134.699 278.026 138.467Z" fill="white"/>
<path d="M352.056 170.053V164.875C348.829 168.762 342.573 171.345 335.896 171.345C327.915 171.345 318.011 165.955 318.011 154.201C318.011 141.59 327.928 137.809 335.896 137.809C342.797 137.809 348.935 139.97 352.056 143.844V137.268C352.056 132.735 348.171 129.718 341.493 129.718C336.317 129.718 330.931 131.655 326.729 135.213L320.803 124.75C327.48 119.031 336.436 116.659 344.404 116.659C356.903 116.659 368.651 121.297 368.651 137.466V170.027H352.056V170.053ZM352.056 152.053C350.331 149.681 346.459 148.39 342.784 148.39C338.372 148.39 334.487 150.327 334.487 154.425C334.487 158.523 338.372 160.46 342.784 160.46C346.445 160.46 350.331 159.169 352.056 156.692V152.053Z" fill="white"/>
<path d="M378.568 170.054V117.977H395.162V124.552C398.613 120.349 405.185 116.685 411.441 116.685V132.748C410.466 132.419 409.07 132.208 407.345 132.208C403.038 132.208 397.322 134.04 395.162 137.057V170.054H378.568Z" fill="white"/>
<path d="M72.8056 222.42V197.726H63.8761V190.557H89.8875V197.726H81.0107V222.42H72.8056Z" fill="white"/>
<path d="M108.313 222.42V209.006C108.313 206.186 106.838 205.276 104.493 205.276C102.347 205.276 100.911 206.476 100.055 207.517V222.42H92.7059V190.571H100.055V202.18C101.438 200.559 104.164 198.793 108.023 198.793C113.278 198.793 115.662 201.758 115.662 206.001V222.433H108.313V222.42Z" fill="white"/>
<path d="M119.521 192.244C119.521 189.899 121.378 188.041 123.722 188.041C126.066 188.041 127.923 189.899 127.923 192.244C127.923 194.59 126.066 196.448 123.722 196.448C121.378 196.448 119.521 194.59 119.521 192.244ZM120.048 222.42V199.36H127.397V222.42H120.048Z" fill="white"/>
<path d="M132.889 214.408C134.601 215.937 138.288 217.466 141.002 217.466C143.201 217.466 144.11 216.754 144.11 215.752C144.11 214.553 142.529 214.132 140.145 213.75C136.234 213.077 130.689 212.274 130.689 206.397C130.689 202.338 134.179 198.806 140.567 198.806C144.439 198.806 147.732 200.045 150.208 201.864L147.389 206.739C146.006 205.408 143.385 204.209 140.606 204.209C138.894 204.209 137.696 204.776 137.696 205.79C137.696 206.805 138.934 207.227 141.37 207.648C145.282 208.32 151.103 209.269 151.103 215.383C151.103 219.772 147.231 223.026 140.606 223.026C136.497 223.026 132.256 221.643 129.82 219.495L132.875 214.435L132.889 214.408Z" fill="white"/>
<path d="M165.38 222.42V190.571H183.423C189.719 190.571 192.735 194.682 192.735 198.688C192.735 202.694 190.298 205.329 187.295 206.001C190.68 206.528 193.354 209.77 193.354 213.789C193.354 218.427 190.245 222.433 184.003 222.433H165.393L165.38 222.42ZM173.598 202.891H181.566C183.239 202.891 184.385 201.692 184.385 200.124C184.385 198.556 183.239 197.396 181.566 197.396H173.598V202.891ZM173.598 215.594H181.856C183.818 215.594 185.004 214.395 185.004 212.682C185.004 211.061 183.858 209.678 181.856 209.678H173.598V215.594Z" fill="white"/>
<path d="M210.291 222.42V220.127C208.855 221.84 206.089 222.987 203.126 222.987C199.596 222.987 195.197 220.602 195.197 215.397C195.197 209.809 199.583 208.136 203.126 208.136C206.181 208.136 208.908 209.085 210.291 210.811V207.899C210.291 205.896 208.578 204.552 205.615 204.552C203.323 204.552 200.94 205.408 199.083 206.99L196.462 202.351C199.425 199.821 203.389 198.767 206.919 198.767C212.464 198.767 217.653 200.823 217.653 207.991V222.407H210.304L210.291 222.42ZM210.291 214.448C209.527 213.394 207.815 212.827 206.181 212.827C204.219 212.827 202.507 213.684 202.507 215.502C202.507 217.321 204.219 218.177 206.181 218.177C207.801 218.177 209.527 217.61 210.291 216.504V214.448Z" fill="white"/>
<path d="M233.102 198.78C238.067 198.78 241.175 200.981 242.558 203.036L237.79 207.477C236.881 206.146 235.406 205.276 233.444 205.276C230.389 205.276 228.044 207.372 228.044 210.864C228.044 214.356 230.389 216.504 233.444 216.504C235.406 216.504 236.881 215.555 237.79 214.263L242.558 218.757C241.175 220.76 238.067 223.013 233.102 223.013C225.897 223.013 220.498 218.138 220.498 210.877C220.498 203.616 225.897 198.793 233.102 198.793V198.78Z" fill="white"/>
<path d="M259.548 222.42L254.49 214.25L252.291 216.873V222.407H244.942V190.557H252.291V208.558L259.311 199.347H268.187L259.692 209.849L268.622 222.407H259.548V222.42Z" fill="white"/>
<path d="M282.833 216.214V205.751H279.013V199.347H282.833V193.048H290.142V199.347H294.818V205.751H290.142V214.158C290.142 215.489 290.906 216.504 292.197 216.504C293.013 216.504 293.817 216.214 294.054 215.937L295.489 221.471C294.581 222.328 292.763 223 290.05 223C285.375 223 282.846 220.654 282.846 216.214H282.833Z" fill="white"/>
<path d="M296.003 210.864C296.003 204.367 300.731 198.78 308.554 198.78C316.378 198.78 321.158 204.367 321.158 210.864C321.158 217.36 316.483 223 308.554 223C300.626 223 296.003 217.36 296.003 210.864ZM313.612 210.864C313.612 207.807 311.794 205.276 308.554 205.276C305.314 205.276 303.589 207.807 303.589 210.864C303.589 213.921 305.354 216.504 308.554 216.504C311.755 216.504 313.612 213.974 313.612 210.864Z" fill="white"/>
<path d="M337.569 211.773C339.86 214.066 343.39 215.976 347.736 215.976C350.555 215.976 352.267 214.777 352.267 213.249C352.267 211.43 350.212 210.719 346.827 210.007C341.572 208.953 334.223 207.622 334.223 200.071C334.223 194.721 338.754 190.096 346.92 190.096C352.03 190.096 356.468 191.625 359.853 194.537L355.362 200.414C352.688 198.213 349.198 197.12 346.393 197.12C343.587 197.12 342.626 198.213 342.626 199.61C342.626 201.284 344.588 201.85 348.118 202.522C353.373 203.616 360.63 205.145 360.63 212.366C360.63 218.77 355.902 223.013 347.354 223.013C340.914 223.013 336.423 221.01 333.222 217.953L337.569 211.786V211.773Z" fill="white"/>
<path d="M374.367 198.78C379.332 198.78 382.44 200.981 383.823 203.036L379.042 207.477C378.133 206.146 376.658 205.276 374.696 205.276C371.64 205.276 369.309 207.372 369.309 210.864C369.309 214.356 371.653 216.504 374.696 216.504C376.658 216.504 378.133 215.555 379.042 214.263L383.823 218.757C382.44 220.76 379.332 223.013 374.367 223.013C367.162 223.013 361.763 218.138 361.763 210.877C361.763 203.616 367.162 198.793 374.367 198.793V198.78Z" fill="white"/>
<path d="M401.853 222.42V209.006C401.853 206.186 400.378 205.276 398.034 205.276C395.887 205.276 394.451 206.476 393.595 207.517V222.42H386.246V190.571H393.595V202.18C394.978 200.559 397.704 198.793 401.563 198.793C406.818 198.793 409.202 201.758 409.202 206.001V222.433H401.853V222.42Z" fill="white"/>
<path d="M412.06 210.864C412.06 204.367 416.788 198.78 424.611 198.78C432.434 198.78 437.215 204.367 437.215 210.864C437.215 217.36 432.54 223 424.611 223C416.683 223 412.06 217.36 412.06 210.864ZM429.669 210.864C429.669 207.807 427.851 205.276 424.611 205.276C421.371 205.276 419.646 207.807 419.646 210.864C419.646 213.921 421.411 216.504 424.611 216.504C427.812 216.504 429.669 213.974 429.669 210.864Z" fill="white"/>
<path d="M438.598 210.864C438.598 204.367 443.326 198.78 451.149 198.78C458.973 198.78 463.753 204.367 463.753 210.864C463.753 217.36 459.078 223 451.149 223C443.326 223 438.598 217.36 438.598 210.864ZM456.207 210.864C456.207 207.807 454.389 205.276 451.149 205.276C447.91 205.276 446.184 207.807 446.184 210.864C446.184 213.921 447.949 216.504 451.149 216.504C454.35 216.504 456.207 213.974 456.207 210.864Z" fill="white"/>
<path d="M466.651 222.42V190.571H474V222.42H466.651Z" fill="white"/>
</g>
<defs>
<clipPath id="clip0_1_51">
<rect width="474" height="223" fill="white"/>
</clipPath>
</defs>
</svg>
