<svg width="198" height="92" viewBox="0 0 198 92" fill="none" xmlns="http://www.w3.org/2000/svg">
<g clip-path="url(#clip0_140_231)">
<path d="M192.376 91.9999C195.531 91.9999 197.82 90.2796 197.82 87.3212C197.82 84.6086 196.297 83.2705 193.44 82.0053L192.358 81.5046C190.664 80.7582 189.943 80.1848 189.943 78.9195C189.943 77.7726 190.781 76.9533 192.106 76.9533C193.431 76.9533 194.152 77.4722 194.792 78.5918L196.837 77.3266C195.828 75.5151 194.323 74.6686 192.115 74.6686C189.33 74.6686 187.411 76.4618 187.411 78.965C187.411 81.4682 188.889 82.8154 191.322 83.9077L192.43 84.4084C194.251 85.2276 195.233 85.8739 195.233 87.3394C195.233 88.8049 194.026 89.6515 192.331 89.6515C190.285 89.6515 189.276 88.6047 188.492 87.2848L186.347 88.4772C187.284 90.3888 189.204 91.9817 192.376 91.9817M172.297 91.7724H183.274V89.4603H174.911V86.0013H182.021V83.7439H174.911V77.1809H182.931V74.8689H172.297V91.7724ZM164.366 91.7724H166.953V74.8689H164.366V91.7724ZM149.108 89.4603V77.1809H150.929C155.282 77.1809 157.328 79.7205 157.328 83.3252C157.328 86.9298 155.282 89.4694 150.929 89.4694H149.108V89.4603ZM146.504 91.7724H151.109C156.498 91.7724 160.04 88.3953 160.04 83.3161C160.04 78.2368 156.471 74.8597 151.109 74.8597H146.504V91.7633V91.7724ZM135.202 91.9999C138.825 91.9999 141.574 89.9337 141.574 85.8284V74.8689H138.988V85.6827C138.988 88.4135 137.636 89.6333 135.193 89.6333C132.751 89.6333 131.426 88.4135 131.426 85.6827V74.8689H128.813V85.8284C128.813 89.9337 131.543 91.9999 135.184 91.9999M117.827 91.7724H120.413V77.1809H125.388V74.8689H112.861V77.1809H117.836V91.7724H117.827ZM105.002 91.9999C108.156 91.9999 110.446 90.2796 110.446 87.3212C110.446 84.6086 108.923 83.2705 106.066 82.0053L104.984 81.5046C103.29 80.7582 102.569 80.1848 102.569 78.9195C102.569 77.7726 103.407 76.9533 104.732 76.9533C106.057 76.9533 106.778 77.4722 107.417 78.5918L109.463 77.3266C108.454 75.5151 106.949 74.6686 104.732 74.6686C101.947 74.6686 100.027 76.4618 100.027 78.965C100.027 81.4682 101.505 82.8154 103.939 83.9077L105.047 84.4084C106.868 85.2276 107.859 85.8739 107.859 87.3394C107.859 88.8049 106.651 89.6515 104.957 89.6515C102.911 89.6515 101.902 88.6047 101.118 87.2848L98.973 88.4772C99.9102 90.3888 101.83 91.9817 105.002 91.9817M79.921 91.7724H90.2581V89.4603H82.5346V74.8689H79.93V91.7724H79.921ZM65.7627 87.1756L67.8535 81.9052C68.2681 80.913 68.6646 79.3928 68.6646 79.3928C68.6646 79.3928 69.0882 80.913 69.5028 81.9052L71.5936 87.1756H65.7627ZM61.4097 91.7724H63.9242L64.8795 89.3875H72.5309L73.4862 91.7724H76.1899L68.8539 74.6959H68.5565L61.3917 91.7724H61.4097ZM55.0381 91.7724H57.6246V74.8689H55.0381V91.7724ZM44.0611 91.9999C47.1883 91.9999 49.5496 90.6346 51.0005 88.3953L49.0088 86.9753C47.9274 88.5956 46.3772 89.6333 44.0611 89.6333C40.5914 89.6333 38.131 86.9207 38.131 83.3161C38.131 79.7114 40.5914 77.0262 44.0611 77.0262C46.2511 77.0262 47.8282 78.0001 48.7655 79.4657L50.7572 78.0184C49.2792 75.7791 47.0622 74.6595 44.0611 74.6595C39.3116 74.6595 35.4724 78.2641 35.4724 83.307C35.4724 88.3498 39.3116 91.9817 44.0611 91.9817M23.486 89.6333C19.9893 89.6333 17.5019 86.9207 17.5019 83.3161C17.5019 79.7114 19.9893 76.9989 23.486 76.9989C26.9828 76.9989 29.4431 79.7114 29.4431 83.3161C29.4431 86.9207 26.9828 89.6333 23.486 89.6333ZM23.486 91.9999C28.2625 91.9999 32.1018 88.368 32.1018 83.3252C32.1018 78.2823 28.2625 74.6504 23.486 74.6504C18.7095 74.6504 14.8432 78.2823 14.8432 83.3252C14.8432 88.368 18.6825 91.9999 23.486 91.9999ZM6.02922 91.9999C9.18352 91.9999 11.4726 90.2796 11.4726 87.3212C11.4726 84.6086 9.94957 83.2705 7.09267 82.0053L6.0112 81.5046C4.30787 80.7582 3.5959 80.1848 3.5959 78.9195C3.5959 77.7726 4.43405 76.9533 5.75885 76.9533C7.08366 76.9533 7.80464 77.4722 8.44452 78.5918L10.4903 77.3266C9.48093 75.5151 7.97588 74.6686 5.75885 74.6686C2.97406 74.6686 1.05444 76.4618 1.05444 78.965C1.05444 81.4682 2.53245 82.8154 4.96577 83.9077L6.07428 84.4084C7.89477 85.2276 8.88612 85.8739 8.88612 87.3394C8.88612 88.8049 7.67847 89.6515 5.98416 89.6515C3.93837 89.6515 2.92899 88.6047 2.14493 87.2848L0 88.4954C0.937278 90.407 2.8569 91.9999 6.02922 91.9999Z" fill="#005BAB"/>
<path d="M0 69.6713H9.48994V32.8786H0V69.6713ZM26.4871 33.9436C26.5953 33.4066 26.7214 32.8786 26.8386 32.3324C26.6313 32.7876 26.424 33.2427 26.2258 33.6978C26.1356 33.534 26.0455 33.3701 25.9644 33.1972C26.0455 33.3883 26.1266 33.5795 26.1987 33.7616C26.0816 33.534 25.9644 33.2973 25.8472 33.0606C25.8472 33.4885 25.8382 33.9163 25.8382 34.335C25.9103 34.244 25.9824 34.1621 26.0635 34.071C25.9013 34.4169 25.7481 34.7628 25.5949 35.1087C25.7391 34.7992 25.8833 34.4989 26.0275 34.1985C25.8653 34.5717 25.694 34.9449 25.5318 35.309C25.4597 35.4819 25.3876 35.664 25.3155 35.846C25.5589 35.7095 25.8022 35.5821 26.0455 35.4637C25.9554 35.5548 25.8653 35.6549 25.7842 35.7459C25.8022 35.7641 25.8202 35.7732 25.8382 35.7914C25.8382 36.2466 25.8382 36.6926 25.8472 37.1386C25.9464 36.6289 26.0455 36.1009 26.1537 35.5821C26.2618 35.5093 26.379 35.4455 26.4871 35.3727C26.379 35.4091 26.2798 35.4455 26.1717 35.4819C26.3249 35.3818 26.4781 35.2999 26.6313 35.2089C26.4961 35.2544 26.3609 35.2999 26.2258 35.3454C26.424 35.2362 26.6223 35.136 26.8296 35.0359C26.7845 34.9358 26.7305 34.8357 26.6854 34.7355C26.5682 34.5535 26.4511 34.3714 26.3339 34.1894C26.424 34.2986 26.5232 34.3987 26.6133 34.508C26.4961 34.3077 26.388 34.1075 26.2708 33.8981C26.3519 33.9527 26.4421 34.0073 26.5232 34.0619C26.5142 34.0164 26.4961 33.9709 26.4871 33.9254M27.0098 41.3167C26.9017 41.3713 26.7935 41.4168 26.6944 41.4715C26.7124 41.4988 26.7395 41.5261 26.7665 41.5534C26.7665 41.5807 26.7665 41.5989 26.7665 41.6171L26.4691 41.2985C26.6493 41.2985 26.8296 41.2985 27.0098 41.3167ZM27.902 38.1763C27.6587 38.5768 27.4154 38.9773 27.1811 39.3779C27.0639 39.1321 26.9467 38.8863 26.8296 38.6405C26.9377 38.9136 27.0369 39.1776 27.145 39.4416C26.9918 39.1048 26.8386 38.768 26.6854 38.4221C26.6944 38.9136 26.7034 39.3961 26.7214 39.8785C26.8116 39.8239 26.9017 39.7693 26.9918 39.7147C26.8116 40.015 26.6313 40.3154 26.4511 40.6067C26.6223 40.3518 26.7935 40.097 26.9648 39.8421C26.7665 40.1607 26.5772 40.4793 26.388 40.807L26.2618 41.0436L18.1598 32.3689H17.4568V69.6622H26.5953V58.4569C26.5953 55.4257 26.1086 51.2659 26.1086 51.2659C26.1086 51.2659 28.2716 54.8614 30.786 57.5375L36.0942 63.2449H36.7882L41.9522 57.5375C44.3945 54.8614 46.6927 51.2659 46.6927 51.2659C46.6927 51.2659 46.206 55.4257 46.206 58.4569V69.6622H55.3445V32.3689H54.6505L36.5719 52.1033L27.0639 41.9175C27.0909 41.7809 27.118 41.6353 27.154 41.4988C27.2892 41.4897 27.4334 41.4806 27.5686 41.4715C27.4334 41.4441 27.3072 41.4259 27.1721 41.3986C27.3613 41.3986 27.5596 41.3895 27.7488 41.3895C27.5776 41.3531 27.4064 41.3167 27.2442 41.2894C27.4965 41.2894 27.7398 41.2985 27.9922 41.3076C27.9291 41.162 27.857 41.0163 27.7939 40.8707C27.6407 40.5885 27.4875 40.3063 27.3253 40.0241C27.4514 40.2062 27.5686 40.3882 27.6948 40.5703C27.5416 40.2699 27.3883 39.9604 27.2351 39.6509C27.3433 39.7602 27.4514 39.8785 27.5596 39.9968C27.5416 39.9331 27.5235 39.8785 27.5145 39.8239C27.6407 39.2777 27.7669 38.7225 27.893 38.1672M48.0355 32.8331C46.936 32.0139 45.8365 31.231 44.737 30.4937C45.5932 30.9762 46.4493 31.4859 47.3055 32.023C46.2601 31.2128 45.2056 30.43 44.1602 29.6836C44.8992 29.9749 45.6292 30.3026 46.3682 30.6394C46.2511 30.5028 46.1429 30.3572 46.0258 30.2206C46.8639 29.1647 47.7201 28.1088 48.6213 27.062C46.9721 27.6355 45.3498 28.3091 43.7727 29.0919C43.0697 28.5913 42.3668 28.0997 41.6638 27.6264C42.2947 28.1452 42.9255 28.6641 43.5564 29.2011C43.5564 29.2011 43.5474 29.2011 43.5384 29.2011C42.6371 28.5276 41.7359 27.8813 40.8257 27.2532C40.8797 28.1908 40.9338 29.1101 40.9969 30.0113C41.5196 29.902 42.0423 29.8019 42.565 29.7109C41.5196 30.2297 40.4832 30.7941 39.4738 31.404C40.4201 30.876 41.3934 30.3936 42.3758 29.9567C41.2673 30.5119 40.1768 31.1218 39.1133 31.7863C38.6717 32.0776 38.2391 32.3871 37.8066 32.6965C39.4378 32.6237 41.096 32.6692 42.7633 32.8422C42.1234 32.8786 41.4926 32.9332 40.8617 33.0151C40.9969 33.0789 41.1321 33.1426 41.2673 33.2063C41.3664 34.2349 41.4836 35.2453 41.6007 36.2193C42.2586 35.2635 42.9345 34.3077 43.6375 33.361C44.5748 33.4521 45.503 33.5886 46.4403 33.7616C45.5481 33.534 44.6559 33.3337 43.7637 33.179C43.7637 33.179 43.7637 33.179 43.7637 33.1699C45.0885 33.3246 46.4223 33.5613 47.7561 33.889C46.5755 33.534 45.3949 33.2427 44.2233 33.0151C46.0077 33.2609 47.8102 33.6614 49.6127 34.2076C49.0899 33.7433 48.5672 33.2882 48.0445 32.8422M35.968 38.5495C36.3826 39.0866 36.7972 39.6145 37.2117 40.1334C37.2117 40.1334 37.2027 40.1334 37.1937 40.1334C36.5989 39.4598 36.0041 38.7771 35.4093 38.0853C35.4634 38.9045 35.5264 39.7056 35.5895 40.4884C35.923 40.4702 36.2564 40.4611 36.5899 40.452C35.923 40.7615 35.2741 41.0982 34.6252 41.4624C35.2381 41.1711 35.8509 40.8889 36.4727 40.634C35.7698 40.9708 35.0758 41.3349 34.3999 41.7354C34.1115 41.9175 33.8321 42.1086 33.5528 42.2998C34.6162 42.5274 35.6977 42.7913 36.7792 43.1008C36.3736 43.0735 35.968 43.0462 35.5625 43.0371C35.6526 43.1099 35.7427 43.1736 35.8239 43.2465C35.905 44.1203 35.9951 44.9669 36.0762 45.7861C36.4817 45.0488 36.9053 44.3206 37.3289 43.5924C37.9147 43.738 38.5005 43.9018 39.0863 44.0748C38.5275 43.8563 37.9688 43.6561 37.41 43.4558C38.2301 43.6834 39.0593 43.9292 39.8974 44.2022C39.1584 43.9019 38.4194 43.6197 37.6894 43.3557C38.7889 43.6743 39.9064 44.0384 41.0239 44.448C40.6995 44.093 40.3751 43.738 40.0506 43.383C39.3567 42.7003 38.6627 42.0267 37.9688 41.3349C38.5095 41.7991 39.0503 42.2634 39.591 42.7185C38.9241 42.0267 38.2572 41.3167 37.5903 40.6158C38.0589 40.9344 38.5185 41.253 38.9872 41.5716C38.9151 41.4532 38.834 41.3349 38.7619 41.2075C39.2485 40.4065 39.7532 39.6054 40.2759 38.8044C39.2756 39.1776 38.2932 39.6054 37.3289 40.0788C36.8693 39.5781 36.4096 39.0684 35.95 38.5586M31.6421 41.344C31.3538 40.9617 31.0744 40.5794 30.786 40.188C31.0113 40.4429 31.2366 40.6886 31.4619 40.9435C31.1825 40.5339 30.9031 40.1243 30.6328 39.7147C30.831 39.8785 31.0293 40.0423 31.2276 40.1971C31.2005 40.1243 31.1645 40.0423 31.1375 39.9695C31.3538 39.2959 31.5791 38.6314 31.8134 37.9487C31.3718 38.4039 30.9392 38.8772 30.5246 39.3505C30.3173 39.032 30.1191 38.7134 29.9118 38.3857C30.101 38.7316 30.2813 39.0775 30.4615 39.4143C30.1912 38.9864 29.9298 38.5404 29.6594 38.1035C29.6775 38.7134 29.6955 39.3141 29.7225 39.9149C29.8757 39.8603 30.0289 39.8057 30.1912 39.7511C29.8757 40.0879 29.5693 40.4338 29.2629 40.7797C29.5513 40.4793 29.8397 40.188 30.1371 39.9058C29.8036 40.2699 29.4702 40.6431 29.1457 41.0163C29.0106 41.1893 28.8664 41.3713 28.7312 41.5534C29.2359 41.5989 29.7406 41.6535 30.2543 41.7172C30.065 41.7627 29.8757 41.8083 29.6955 41.8538C29.7406 41.8902 29.7766 41.9357 29.8217 41.9721C29.8487 42.6184 29.8848 43.2647 29.9208 43.8836C30.1101 43.2556 30.2993 42.6275 30.4976 41.9903C30.7409 42.0085 30.9933 42.0176 31.2456 42.0449C31.0113 41.9903 30.768 41.9266 30.5336 41.872C30.8851 41.8993 31.2276 41.9448 31.5791 41.9812C31.2726 41.8993 30.9662 41.8174 30.6508 41.7445C31.1104 41.7991 31.5701 41.8629 32.0297 41.9357C31.9035 41.7354 31.7773 41.5352 31.6512 41.3349M29.8397 30.6121C29.4972 31.1764 29.1548 31.7408 28.8303 32.3051C28.6861 32.1049 28.5419 31.9137 28.3887 31.7135C28.5149 31.941 28.6501 32.1595 28.7762 32.3871C28.587 32.114 28.3977 31.8409 28.2085 31.5678C28.2085 32.0867 28.2085 32.5964 28.2085 33.1062C28.3256 32.9969 28.4428 32.8877 28.569 32.7785C28.3166 33.1972 28.0733 33.625 27.83 34.0437C28.0553 33.6705 28.2896 33.2973 28.5239 32.9332C28.2535 33.3883 27.9922 33.8435 27.7308 34.2986C27.6227 34.5171 27.5055 34.7264 27.3883 34.9449C27.7759 34.7719 28.1634 34.6172 28.5509 34.4625C28.4067 34.5808 28.2625 34.69 28.1183 34.8084C28.1454 34.8266 28.1814 34.8448 28.2085 34.863C28.2085 35.4091 28.2265 35.9553 28.2355 36.4923C28.3887 35.8643 28.5509 35.2362 28.7222 34.6081C28.9114 34.5171 29.0917 34.4351 29.2809 34.3532C29.1097 34.3987 28.9294 34.4442 28.7582 34.4898C29.0196 34.3714 29.2719 34.2622 29.5333 34.1621C29.308 34.2167 29.0827 34.2713 28.8574 34.3259C29.1908 34.1894 29.5243 34.0619 29.8667 33.9436C29.7766 33.8253 29.6955 33.6978 29.6054 33.5795C29.4071 33.361 29.2088 33.1426 29.0106 32.9241C29.1728 33.0515 29.326 33.179 29.4882 33.3064C29.299 33.0606 29.1007 32.8149 28.9114 32.5691C29.0556 32.6328 29.1998 32.6874 29.344 32.7512C29.326 32.6965 29.308 32.6419 29.2809 32.5873C29.4702 31.9319 29.6594 31.2674 29.8577 30.6029M32.0837 23.6759C32.3721 22.8657 32.6695 22.0556 32.985 21.2455C32.4623 22.0374 31.9666 22.8293 31.4709 23.6304C31.2726 23.512 31.0744 23.3937 30.8761 23.2845C31.0473 23.4392 31.2276 23.5939 31.3988 23.7487C31.3988 23.7487 31.3988 23.7487 31.3988 23.7578C31.1375 23.5848 30.8851 23.421 30.6238 23.248C30.5967 23.7942 30.5787 24.3313 30.5607 24.8592C30.7319 24.6681 30.9031 24.4769 31.0744 24.2948C30.7049 24.8865 30.3444 25.4782 29.9929 26.079C30.3264 25.5419 30.6598 25.014 31.0023 24.486C30.6057 25.1232 30.2272 25.7604 29.8577 26.4066C29.6955 26.707 29.5333 26.9983 29.362 27.2987C29.8938 26.88 30.4435 26.4795 30.9933 26.0881C30.786 26.2883 30.5877 26.4977 30.3804 26.707C30.4165 26.707 30.4615 26.707 30.4976 26.707C30.4886 27.2896 30.4796 27.8631 30.4706 28.4365C30.7139 27.6719 30.9662 26.9073 31.2186 26.1336C31.4799 25.9333 31.7503 25.7331 32.0207 25.5419C31.7683 25.6875 31.516 25.8332 31.2726 25.9879C31.6421 25.7148 32.0117 25.46 32.3902 25.196C32.0657 25.3781 31.7413 25.5692 31.4168 25.7604C31.8945 25.4236 32.3812 25.0959 32.8768 24.7773C32.7597 24.6954 32.6425 24.6134 32.5254 24.5224C32.246 24.4041 31.9756 24.2857 31.6962 24.1674C31.9215 24.2038 32.1378 24.2493 32.3631 24.2948C32.0928 24.1492 31.8224 24.0036 31.561 23.8579C31.7593 23.8397 31.9666 23.8215 32.1649 23.8033C32.1378 23.7578 32.1108 23.7123 32.0837 23.6668M35.5805 28.1908C34.9136 28.8917 34.2467 29.6108 33.6158 30.3481C33.3365 30.0932 33.0481 29.8383 32.7687 29.5835C33.021 29.8747 33.2734 30.166 33.5257 30.4482C33.5257 30.4482 33.5257 30.4482 33.5167 30.4573C33.1472 30.1023 32.7777 29.7473 32.4082 29.4014C32.4082 30.0568 32.4172 30.7122 32.4262 31.3585C32.6515 31.2219 32.8768 31.0854 33.1021 30.9488C32.6335 31.4677 32.1739 32.0047 31.7323 32.5418C32.1558 32.0685 32.5794 31.6042 33.021 31.1491C32.5254 31.7044 32.0387 32.2778 31.57 32.8604C31.3628 33.1244 31.1645 33.3974 30.9572 33.6705C31.6692 33.4612 32.3902 33.2791 33.1202 33.1244C32.8498 33.2518 32.5794 33.3883 32.3091 33.534C32.3631 33.5613 32.4172 33.5886 32.4803 33.6159C32.4983 34.3259 32.5254 35.0268 32.5614 35.7095C32.8498 34.9176 33.1562 34.1257 33.4626 33.3337C33.8231 33.2427 34.1926 33.1517 34.5621 33.0698C34.2107 33.0971 33.8682 33.1335 33.5167 33.179C34.0214 33.0606 34.5351 32.9605 35.0578 32.8604C34.6072 32.8877 34.1566 32.9332 33.706 32.9787C34.3729 32.8422 35.0578 32.7239 35.7427 32.6328C35.5625 32.4599 35.3823 32.2778 35.202 32.0958C34.7965 31.7772 34.3909 31.4677 33.9853 31.1582C34.3098 31.3403 34.6252 31.5223 34.9497 31.7135C34.5531 31.3767 34.1656 31.0308 33.7691 30.694C34.0574 30.785 34.3368 30.876 34.6252 30.9762C34.5892 30.9033 34.5441 30.8305 34.499 30.7577C34.8505 29.9112 35.211 29.0555 35.5895 28.1999M41.5557 16.0388C40.4652 17.0856 39.4107 18.1597 38.4014 19.2611C37.9778 19.1155 37.5632 18.9789 37.1396 18.8424C37.5091 19.0335 37.8787 19.2156 38.2572 19.4158C38.2572 19.4158 38.2572 19.425 38.2482 19.425C37.6984 19.2156 37.1577 19.0244 36.6169 18.8333C36.5899 19.5342 36.5809 20.2351 36.5629 20.9178C36.9053 20.6629 37.2478 20.3989 37.5993 20.1532C36.8783 20.936 36.1663 21.7279 35.4814 22.538C36.1213 21.8189 36.7882 21.1089 37.4551 20.408C36.689 21.2455 35.941 22.092 35.22 22.9568C34.9046 23.3482 34.5982 23.7396 34.2918 24.131C35.3462 23.5393 36.4187 22.9932 37.5182 22.5107C37.1036 22.7747 36.698 23.0478 36.2925 23.3209C36.3736 23.3209 36.4547 23.3209 36.5358 23.3209C36.5358 24.0855 36.5448 24.8501 36.5629 25.5965C37.0315 24.5952 37.5182 23.5848 38.0229 22.5745C38.5816 22.3105 39.1494 22.0647 39.7172 21.828C39.1854 22.001 38.6447 22.1921 38.122 22.3833C38.122 22.3833 38.122 22.3833 38.122 22.3742C38.9061 22.0192 39.6991 21.6915 40.5102 21.3911C39.8073 21.6005 39.1133 21.828 38.4194 22.0829C39.4558 21.6369 40.5193 21.2364 41.5827 20.8814C41.3123 20.7448 41.033 20.6174 40.7626 20.49C40.1497 20.2988 39.5369 20.1259 38.9151 19.962C39.4017 20.0166 39.8884 20.0894 40.3841 20.1623C39.7893 19.9438 39.2035 19.7435 38.6087 19.5524C39.0412 19.516 39.4738 19.4978 39.9154 19.4796C39.8523 19.4158 39.7893 19.3521 39.7352 19.2884C40.321 18.2052 40.9248 17.1129 41.5647 16.0206M49.3333 4.23271C50.3967 2.82181 51.5142 1.4109 52.6768 0C50.7031 1.52924 48.8106 3.12219 47.0081 4.76976C46.2871 4.81528 45.5751 4.86989 44.8632 4.94271C45.494 4.94271 46.1249 4.96092 46.7558 4.99733C46.7558 4.99733 46.7377 5.00643 46.7377 5.01553C45.8095 5.05194 44.8902 5.11566 43.971 5.20669C43.9169 5.944 43.8718 6.67221 43.8358 7.40042C44.4126 6.95439 45.0074 6.51746 45.6022 6.08964C44.3585 7.24567 43.1599 8.42901 41.9973 9.63966C43.0878 8.54734 44.2053 7.47324 45.3589 6.42644C44.0431 7.66439 42.7813 8.92965 41.5647 10.2222C41.042 10.7866 40.5373 11.36 40.0326 11.9335C41.7629 10.732 43.5564 9.63055 45.4039 8.63837C44.701 9.1026 44.007 9.58504 43.3131 10.0766C43.4482 10.0402 43.5924 10.0038 43.7276 9.96735C43.7006 10.7957 43.6916 11.6058 43.6736 12.4159C44.4937 11.1143 45.3589 9.8126 46.2601 8.50183C47.2334 7.97388 48.2248 7.46413 49.2251 6.9908C48.2788 7.39131 47.3506 7.81003 46.4223 8.25606C46.4223 8.25606 46.4223 8.25606 46.4313 8.24696C47.8012 7.51875 49.2071 6.84516 50.631 6.22618C49.3783 6.70862 48.1527 7.23657 46.945 7.80093C48.7835 6.85426 50.6671 6.01682 52.5867 5.27041C52.1 5.21579 51.6044 5.17028 51.1177 5.13387C50.0362 5.15207 48.9548 5.20669 47.8733 5.30682C48.7295 5.15207 49.5856 5.02464 50.4508 4.91541C49.4144 4.91541 48.378 4.94271 47.3506 5.00643C48.1076 4.77887 48.8736 4.5604 49.6397 4.36925C49.5315 4.32374 49.4234 4.28733 49.3153 4.24181M63.6718 19.0882C61.7432 17.8866 59.7695 16.8398 57.7598 15.966C59.3189 16.5212 60.869 17.1766 62.3921 17.9321C60.5536 16.8034 58.67 15.8294 56.7684 15.0011C58.1112 15.2924 59.4541 15.6565 60.7699 16.0934C60.5716 15.9113 60.3643 15.7293 60.157 15.5563C61.8333 14.1728 63.5907 12.8165 65.4382 11.4966C62.2299 12.1793 59.1026 13.126 56.0835 14.3184C54.8578 13.7995 53.6231 13.3353 52.3794 12.9439C53.4879 13.4081 54.5874 13.927 55.6779 14.4822C55.6689 14.4822 55.6509 14.4913 55.6419 14.4913C54.0737 13.8086 52.4966 13.217 50.9014 12.7254C50.9284 13.8086 50.9735 14.8828 51.0276 15.9387C51.9649 15.6838 52.9021 15.4653 53.8484 15.2651C51.9468 16.0661 50.0993 16.9673 48.2969 17.9685C49.9912 17.0947 51.7215 16.3028 53.497 15.6019C51.4962 16.4575 49.5496 17.4315 47.666 18.5056C46.9 18.9698 46.1429 19.4523 45.4039 19.9438C48.2158 19.3521 51.0997 19.07 53.9836 19.1064C52.8481 19.2156 51.7215 19.3794 50.604 19.5888C50.8383 19.6343 51.0636 19.6889 51.298 19.7435C51.4061 20.9997 51.5233 22.2377 51.6584 23.4483C52.8751 22.1648 54.1549 20.8996 55.4887 19.6616C57.183 19.7253 58.8863 19.8983 60.5716 20.1805C58.9674 19.8255 57.3542 19.5706 55.741 19.4158C55.741 19.4158 55.75 19.4158 55.75 19.4067C58.1833 19.5251 60.6167 19.8801 63.0139 20.4535C60.896 19.8437 58.7421 19.4158 56.5882 19.1701C59.9227 19.4158 63.2392 20.0894 66.4656 21.1909C65.5464 20.4444 64.6181 19.7344 63.6718 19.0608M82.3543 47.3244C82.3543 51.7665 79.912 53.4596 74.9552 53.4596H72.7202V41.1984H74.9552C79.6957 41.1984 82.3543 42.8915 82.3543 47.3335M92.1236 47.3244C92.1236 37.9487 85.4185 32.8786 75.1625 32.8786H63.2302V69.6713H72.7202V61.7065H75.1625C85.4185 61.7065 92.1236 56.6273 92.1236 47.3244ZM113.618 60.2319H105.101L106.706 56.5636C108.382 52.7587 109.355 48.8082 109.355 48.8082C109.355 48.8082 110.473 52.7587 112.077 56.5636L113.609 60.2319H113.618ZM117.25 69.6713H127.091L109.923 32.4508H109.157L92.0605 69.6713H101.271L102.524 66.713H115.997L117.25 69.6713ZM138.321 51.275C138.321 45.1398 141.808 40.6977 147.531 40.6977C151.65 40.6977 153.948 42.7458 155.561 45.3492L163.095 40.2699C159.815 35.1269 154.786 32.2323 147.531 32.2323C136.293 32.2323 128.623 40.3427 128.623 51.2659C128.623 62.189 135.95 70.2994 147.811 70.2994C155.768 70.2994 161.491 66.631 164.213 61.0694L156.534 56.6273C155.065 59.6585 152.281 61.8431 147.738 61.8431C141.808 61.8431 138.321 57.3282 138.321 51.2659M198 41.1984V32.8786H167.782V41.1984H178.11V69.6804H187.672V41.1984H198Z" fill="#005BAB"/>
</g>
<defs>
<clipPath id="clip0_140_231">
<rect width="198" height="92" fill="white"/>
</clipPath>
</defs>
</svg>
