<svg width="102" height="102" viewBox="0 0 102 102" fill="none" xmlns="http://www.w3.org/2000/svg">
<g clip-path="url(#clip0_13_11)">
<path d="M102 0H0V102H102V0Z" fill="white"/>
<path d="M39.8035 32.9757L37.0465 8.24213H29.9747L24.1808 25.2649L17.9848 8.24213H10.9129L8.31393 32.9757H14.1078L15.3068 16.4771L21.1438 32.9757H26.5787L32.1357 16.513L33.6937 32.9757H39.8035Z" fill="#E31B22"/>
<path d="M52.3462 33.5285C56.9483 33.5285 59.4683 31.1952 59.576 31.1162L57.3144 27.4116C57.2067 27.4834 55.3472 28.747 53.1646 28.747C50.1277 28.747 48.6774 26.6721 48.6774 23.7428C48.6774 20.8135 50.6087 18.8104 53.5021 18.8104C55.2826 18.8104 56.8047 19.8156 56.9483 19.9233L59.2816 16.3263C59.0231 15.953 56.7616 14.0289 52.6405 14.0289C47.0764 14.0289 42.704 18.2145 42.704 23.8505C42.704 29.4864 46.3728 33.5285 52.3462 33.5285Z" fill="#E31B22"/>
<path d="M28.747 93.6861V68.9525H22.6443V78.408H14.4166V68.9525H8.31393V93.6861H14.4166V83.3403H22.6443V93.6861H28.747Z" fill="#E31B22"/>
<path d="M36.9029 74.9905C38.6476 74.9905 40.026 73.5474 40.026 71.7741C40.026 70.0007 38.6476 68.5935 36.9029 68.5935C35.1583 68.5935 33.7439 69.9935 33.7439 71.7741C33.7439 73.5546 35.1583 74.9905 36.9029 74.9905Z" fill="#E31B22"/>
<path d="M39.8466 77.8121H33.8947V93.6861H39.8466V77.8121Z" fill="#E31B22"/>
<path d="M50.6087 68.9525H44.9512V93.6861H50.6087V68.9525Z" fill="#E31B22"/>
<path d="M61.4068 68.9525H55.7493V93.6861H61.4068V68.9525Z" fill="#E31B22"/>
<path d="M19.4422 63.7258C25.5951 63.7258 28.4526 61.2057 28.747 61.0191V50.2641H18.8822V54.6795H23.3695V58.2406C22.9961 58.3483 21.8474 58.6857 20.0669 58.6857C16.1755 58.6857 12.6504 56.1298 12.6504 50.6015C12.6504 45.7051 15.8022 42.7758 20.1387 42.7758C23.4413 42.7758 25.2936 44.1471 25.9254 44.5563L28.5603 40.6219C28.0003 40.0619 25.5161 37.7286 19.8443 37.7286C12.1693 37.7286 6.49032 42.6968 6.49032 50.9318C6.49032 59.1667 11.8678 63.7258 19.4351 63.7258" fill="#E31B22"/>
<path d="M93.7579 44.2548H88.3445L85.566 56.1226L82.5218 44.2548H77.5177L74.4736 56.1226L71.5874 44.2548H65.9442L71.214 62.6488H77.0367L79.7793 51.3051L82.7803 62.6488H88.8255L93.7579 44.2548Z" fill="#E31B22"/>
<path d="M45.7194 43.7451L45.3676 43.6948L44.9727 43.6733C41.1676 43.6733 38.9204 46.502 38.8055 46.6887V44.2261H33.8875V62.7135H39.8537V51.0826C40.5214 50.0415 42.0148 48.5482 44.621 48.5482L45.7194 43.7307V43.7451Z" fill="#E31B22"/>
<path d="M63.5391 62.8068V51.9944C63.5391 49.7184 63.654 47.5574 62.0457 45.9492C60.5955 44.4917 58.4631 43.7881 55.6344 43.7881C52.9708 43.7881 50.9892 44.4487 49.7759 45.0158C49.381 45.2025 49.0651 45.3748 48.8354 45.5184L50.6661 49.1297C50.8887 49.0292 51.1831 48.9143 51.5277 48.7923C52.4898 48.4548 53.8682 48.0815 55.3472 48.0815C56.6539 48.0815 57.2139 48.4189 57.5442 48.6774C58.1472 49.1584 57.9893 50.2713 57.9893 50.8672H57.5801C55.6416 50.8672 47.3994 51.3697 47.3994 57.178C47.3994 60.7247 49.6754 63.2232 53.4016 63.2232C56.3093 63.2232 58.2119 61.5863 58.6211 61.2488V62.814H63.5463L63.5391 62.8068Z" fill="#E31B22"/>
<path d="M58.0611 57.9247C57.8744 58.0324 56.6467 58.9729 54.6293 58.9729C53.66 58.9729 52.3174 58.5278 52.3174 56.7329C52.3174 55.9862 52.6118 55.5052 52.9492 55.1677C54.0334 54.0836 56.6395 54.1626 58.0611 54.1626V57.9319V57.9247Z" fill="white"/>
</g>
<defs>
<clipPath id="clip0_13_11">
<rect width="102" height="102" fill="white"/>
</clipPath>
</defs>
</svg>
