<svg width="133" height="133" viewBox="0 0 133 133" fill="none" xmlns="http://www.w3.org/2000/svg">
<g clip-path="url(#clip0_1_136)">
<path d="M66.5001 16.337C70.7628 16.337 74.2184 12.8814 74.2184 8.61871C74.2184 4.356 70.7628 0.900391 66.5001 0.900391C62.2373 0.900391 58.7817 4.356 58.7817 8.61871C58.7817 12.8814 62.2373 16.337 66.5001 16.337Z" stroke="#373A36" stroke-width="1.5" stroke-miterlimit="10" stroke-linecap="round"/>
<path d="M92.5479 36.8032L86.1859 43.1651L77.4113 34.3905V52.2999H55.7808V34.2104L52.2637 37.7275L46.8381 43.1531L40.4762 36.7912L54.8925 22.3749C55.0126 22.2428 55.1446 22.0988 55.2766 21.9668C56.8851 20.3583 59.0218 19.278 61.4225 19.0259L66.536 24.1274L71.6376 19.0259C74.2183 19.302 76.511 20.5383 78.1675 22.3629L92.5839 36.7792L92.5479 36.8032Z" stroke="#373A36" stroke-width="1.5" stroke-miterlimit="10" stroke-linecap="round"/>
<path d="M8.61859 74.3024C12.8813 74.3024 16.3369 70.8468 16.3369 66.584C16.3369 62.3213 12.8813 58.8657 8.61859 58.8657C4.35588 58.8657 0.900269 62.3213 0.900269 66.584C0.900269 70.8468 4.35588 74.3024 8.61859 74.3024Z" stroke="#373A36" stroke-width="1.5" stroke-miterlimit="10" stroke-linecap="round"/>
<path d="M36.803 40.5482L43.165 46.9101L34.3903 55.6848H52.2997V77.3153H34.2103L37.7273 80.8323L43.153 86.258L36.791 92.6199L22.3747 78.2035C22.2427 78.0835 22.0986 77.9515 21.9666 77.8194C20.3581 76.2109 19.2778 74.0743 19.0257 71.6736L24.1272 66.56L19.0257 61.4585C19.3018 58.8777 20.5381 56.585 22.3627 54.9285L36.779 40.5122L36.803 40.5482Z" stroke="#373A36" stroke-width="1.5" stroke-miterlimit="10" stroke-linecap="round"/>
<path d="M66.584 132.1C70.8468 132.1 74.3024 128.644 74.3024 124.381C74.3024 120.119 70.8468 116.663 66.584 116.663C62.3213 116.663 58.8657 120.119 58.8657 124.381C58.8657 128.644 62.3213 132.1 66.584 132.1Z" stroke="#373A36" stroke-width="1.5" stroke-miterlimit="10" stroke-linecap="round"/>
<path d="M40.5482 96.1969L46.9101 89.8349L55.6848 98.6096V80.7002H77.3153V98.7896L80.8323 95.2726L86.258 89.8469L92.6199 96.2089L78.2035 110.625C78.0835 110.757 77.9515 110.901 77.8194 111.033C76.2109 112.642 74.0743 113.722 71.6736 113.974L66.56 108.873L61.4585 113.974C58.8777 113.698 56.585 112.462 54.9285 110.637L40.5122 96.2209L40.5482 96.1969Z" stroke="#373A36" stroke-width="1.5" stroke-miterlimit="10" stroke-linecap="round"/>
<path d="M124.381 74.3024C128.644 74.3024 132.1 70.8468 132.1 66.584C132.1 62.3213 128.644 58.8657 124.381 58.8657C120.119 58.8657 116.663 62.3213 116.663 66.584C116.663 70.8468 120.119 74.3024 124.381 74.3024Z" stroke="#373A36" stroke-width="1.5" stroke-miterlimit="10" stroke-linecap="round"/>
<path d="M96.197 40.5482L89.8351 46.9101L98.6097 55.6848H80.7003V77.3153H98.7898L95.2727 80.8323L89.8471 86.258L96.209 92.6199L110.625 78.2035C110.757 78.0835 110.901 77.9515 111.033 77.8194C112.642 76.2109 113.722 74.0743 113.974 71.6736L108.873 66.56L113.974 61.4585C113.698 58.8777 112.462 56.585 110.637 54.9285L96.221 40.5122L96.197 40.5482Z" stroke="#373A36" stroke-width="1.5" stroke-miterlimit="10" stroke-linecap="round"/>
</g>
<defs>
<clipPath id="clip0_1_136">
<rect width="133" height="133" fill="white"/>
</clipPath>
</defs>
</svg>
