<svg width="119" height="118" viewBox="0 0 119 118" fill="none" xmlns="http://www.w3.org/2000/svg">
<g clip-path="url(#clip0_1_153)">
<path d="M29.2402 55.6786C30.4038 53.1598 31.9937 50.8837 33.9292 48.9542C37.5929 45.2801 42.4547 42.8306 47.8926 42.2529L59.5058 53.8877L71.1074 42.2529C79.4025 43.1426 86.3957 48.3996 89.7598 55.6786" stroke="#373A36" stroke-width="1.5" stroke-miterlimit="10"/>
<path d="M59.5058 36.0599C69.1964 36.0599 77.0522 28.1816 77.0522 18.4633C77.0522 8.74496 69.1964 0.866699 59.5058 0.866699C49.8152 0.866699 41.9594 8.74496 41.9594 18.4633C41.9594 28.1816 49.8152 36.0599 59.5058 36.0599Z" stroke="#373A36" stroke-width="1.5" stroke-miterlimit="10"/>
<path d="M103.331 66.6199C103.331 70.71 106.65 74.026 110.739 74.026V101.732L59.4942 117.099L8.26053 101.732V74.026C12.3389 74.026 15.6455 70.71 15.6455 66.6199C15.6455 62.5299 12.3389 59.2023 8.26053 59.2023V49.3931L29.2287 55.6784L59.4942 64.7598L89.7713 55.6784L110.739 49.3931V59.2023C106.661 59.2023 103.331 62.5299 103.331 66.6199Z" stroke="#373A36" stroke-width="1.5" stroke-miterlimit="10"/>
<path d="M118.136 66.6198C118.136 70.7098 114.829 74.0258 110.739 74.0258C106.65 74.0258 103.331 70.7098 103.331 66.6198C103.331 62.5297 106.65 59.2021 110.739 59.2021C114.829 59.2021 118.136 62.5297 118.136 66.6198Z" stroke="#373A36" stroke-width="1.5" stroke-miterlimit="10"/>
<path d="M15.657 66.6198C15.657 70.7098 12.3505 74.0258 8.27205 74.0258C4.19363 74.0258 0.864075 70.7098 0.864075 66.6198C0.864075 62.5297 4.18211 59.2021 8.27205 59.2021C12.362 59.2021 15.657 62.5297 15.657 66.6198Z" stroke="#373A36" stroke-width="1.5" stroke-miterlimit="10"/>
<path d="M59.4942 64.7598V117.099" stroke="#373A36" stroke-width="1.5" stroke-miterlimit="10"/>
</g>
<defs>
<clipPath id="clip0_1_153">
<rect width="119" height="118" fill="white"/>
</clipPath>
</defs>
</svg>
