<svg width="143" height="116" viewBox="0 0 143 116" fill="none" xmlns="http://www.w3.org/2000/svg">
<g clip-path="url(#clip0_1_110)">
<path d="M41.6598 77.5176H60.7821C65.9286 77.5176 70.115 81.7145 70.115 86.8739V87.4577H32.3269V86.8739C32.3269 81.7145 36.5133 77.5176 41.6598 77.5176Z" stroke="#373A36" stroke-width="1.5" stroke-miterlimit="10" stroke-linecap="round"/>
<path d="M56.0605 64.895H46.3971V77.5174H56.0605V64.895Z" stroke="#373A36" stroke-width="1.5" stroke-miterlimit="10" stroke-linecap="round"/>
<path d="M78.7397 64.8952H1.18036V1.18359H101.277V27.2489" stroke="#373A36" stroke-width="1.5" stroke-miterlimit="10" stroke-linecap="round"/>
<path d="M78.7397 55.4283H7.47577V7.49463H94.9818V27.2487" stroke="#373A36" stroke-width="1.5" stroke-miterlimit="10" stroke-linecap="round"/>
<path d="M78.7397 90.5026V27.2485H141.82V104.387H78.7397" stroke="#373A36" stroke-width="1.5" stroke-miterlimit="10" stroke-linecap="round"/>
<path d="M88.6707 93.8794V104.388H78.7397V103.835" stroke="#373A36" stroke-width="1.5" stroke-miterlimit="10" stroke-linecap="round"/>
<path d="M78.7397 90.5026V27.2485H88.6707V80.5625" stroke="#373A36" stroke-width="1.5" stroke-miterlimit="10" stroke-linecap="round"/>
<path d="M130.881 38.7192H101.277V49.685H130.881V38.7192Z" stroke="#373A36" stroke-width="1.5" stroke-miterlimit="10" stroke-linecap="round"/>
<path d="M105.873 44.21H124.617" stroke="#373A36" stroke-width="1.5" stroke-miterlimit="10"/>
<path d="M61.144 114.817L62.6549 111.109L64.8426 113.302L61.144 114.817Z" stroke="#373A36" stroke-width="1.5" stroke-linecap="round" stroke-linejoin="round"/>
<path d="M72.3814 110.225L65.8499 112.892L64.8426 113.318L62.655 111.109L63.0642 110.099L65.7397 103.551L72.3814 110.225Z" stroke="#373A36" stroke-width="1.5" stroke-linecap="round" stroke-linejoin="round"/>
<path d="M114.324 68.1613L112.215 70.2755L72.3813 110.225L65.7397 103.551L74.2542 95.0154L98.9479 70.2755L107.699 61.5029L111.004 64.8321L114.324 68.1613Z" stroke="#373A36" stroke-width="1.5" stroke-linecap="round" stroke-linejoin="round"/>
<path d="M111.46 57.716L113.758 55.4124C114.891 54.2922 116.717 54.2922 117.85 55.4124L120.399 57.9685C121.517 59.1045 121.517 60.9348 120.399 62.0708L118.102 64.3744L111.46 57.716Z" stroke="#373A36" stroke-width="1.5" stroke-linecap="round" stroke-linejoin="round"/>
<path d="M107.699 61.5025L111.46 57.7158L118.102 64.3899L114.324 68.1609L111.004 64.8317L107.699 61.5025Z" stroke="#373A36" stroke-width="1.5" stroke-linecap="round" stroke-linejoin="round"/>
<path d="M111.004 64.832L69.0605 106.88" stroke="#373A36" stroke-width="1.5" stroke-linecap="round" stroke-linejoin="round"/>
<path d="M34.4516 21.9155H67.9903" stroke="#373A36" stroke-width="1.5" stroke-miterlimit="10" stroke-linecap="round"/>
<path d="M38.1187 28.29H64.339" stroke="#373A36" stroke-width="1.5" stroke-miterlimit="10" stroke-linecap="round"/>
<path d="M42.132 41.0068H60.3099" stroke="#373A36" stroke-width="1.5" stroke-miterlimit="10" stroke-linecap="round"/>
<path d="M32.1066 34.6484H70.3511" stroke="#373A36" stroke-width="1.5" stroke-miterlimit="10" stroke-linecap="round"/>
</g>
<defs>
<clipPath id="clip0_1_110">
<rect width="143" height="116" fill="white"/>
</clipPath>
</defs>
</svg>
